<svg width="1600" height="480" viewBox="0 0 1600 480" xmlns="http://www.w3.org/2000/svg">
  <defs>
    <linearGradient id="g2" x1="0%" y1="0%" x2="100%" y2="100%">
      <stop offset="0%" stop-color="#8A5CF6"/>
      <stop offset="100%" stop-color="#2DE2E6"/>
    </linearGradient>
  </defs>
  <rect width="1600" height="480" rx="40" fill="#0B0B12"/>
  <!-- Icon -->
  <g transform="translate(64,64)">
    <rect x="0" y="0" width="352" height="352" rx="72" fill="none" stroke="url(#g2)" stroke-width="8"/>
    <path d="M96,212 C96,144 148,92 216,92" fill="none" stroke="url(#g2)" stroke-width="10" stroke-linecap="round"/>
    <path d="M256,212 C256,144 204,92 136,92" fill="none" stroke="url(#g2)" stroke-width="10" stroke-linecap="round"/>
    <circle cx="96" cy="212" r="10" fill="url(#g2)"/>
    <circle cx="256" cy="212" r="10" fill="url(#g2)"/>
    <circle cx="176" cy="64" r="9" fill="url(#g2)"/>
    <path d="M176 140 L216 240 L176 266 L136 240 Z" fill="#FFFFFF"/>
    <circle cx="176" cy="232" r="14" fill="#0B0B12" stroke="#FFFFFF" stroke-width="8"/>
  </g>
  <!-- Wordmark -->
  <g transform="translate(460,150)">
    <text x="0" y="0" font-family="Inter, Poppins, Helvetica, Arial, sans-serif" font-size="96" font-weight="800" fill="#FFFFFF">InsightfulAffiliate</text>
    <rect x="0" y="20" width="12" height="120" rx="6" fill="url(#g2)"/>
    <text x="24" y="96" font-family="Inter, Poppins, Helvetica, Arial, sans-serif" font-size="40" font-weight="500" fill="#FFFFFF" opacity="0.8">Affiliate Marketing for Beginners</text>
  </g>
</svg>