<svg width="1600" height="420" viewBox="0 0 1600 420" xmlns="http://www.w3.org/2000/svg">
  <defs>
    <linearGradient id="g4" x1="0%" y1="0%" x2="100%" y2="100%">
      <stop offset="0%" stop-color="#8A5CF6"/>
      <stop offset="100%" stop-color="#2DE2E6"/>
    </linearGradient>
  </defs>
  <rect width="1600" height="420" rx="40" fill="#FFFFFF"/>
  <!-- Shared icon small -->
  <g transform="translate(48,48)"><rect x="0" y="0" width="320" height="320" rx="64" fill="none" stroke="url(#g4)" stroke-width="8"/>
    <g id="icon-nudge" transform="translate(-22.00,8.00)">

    <path d="M84,192 C84,132 132,84 192,84" fill="none" stroke="url(#g4)" stroke-width="10" stroke-linecap="round"/>
    <path d="M276,192 C276,132 228,84 168,84" fill="none" stroke="url(#g4)" stroke-width="10" stroke-linecap="round"/>
    <circle cx="84" cy="192" r="10" fill="url(#g4)"/>
    <circle cx="276" cy="192" r="10" fill="url(#g4)"/>
    <circle cx="180" cy="60" r="9" fill="url(#g4)"/>
    <path d="M180 132 L216 220 L180 244 L144 220 Z" fill="#111216"/>
    <circle cx="180" cy="214" r="14" fill="#FFFFFF" stroke="#111216" stroke-width="8"/>
  
</g></g>
  <!-- Text -->
  <g transform="translate(400,115)">
    <text x="0" y="0" font-family="Inter, Poppins, Helvetica, Arial, sans-serif" font-size="84" font-weight="800" fill="#111216">NextGenCopyAI</text>
    <text x="0" y="90" font-family="Inter, Poppins, Helvetica, Arial, sans-serif" font-size="34" font-weight="500" fill="#111216" opacity="0.85">by <tspan fill="url(#g4)">InsightfulAffiliate</tspan></text>
  </g>
</svg>